<svg width="148" height="36" viewBox="0 0 148 36" fill="none" xmlns="http://www.w3.org/2000/svg">
<path d="M0 23.9658V28.2858L13.7926 35.1772V30.8572L0 23.9658Z" fill="#6321A6"/>
<path d="M13.7926 30.8572V35.1772L27.5852 28.2858V23.9658L13.7926 30.8572Z" fill="#FFCD00"/>
<path d="M27.689 23.9657V28.2857L41.4816 21.3942V17.0742L27.689 23.9657Z" fill="#FF9E1B"/>
<path d="M0 15.4287V19.7487L13.7926 26.6401V22.3201L0 15.4287Z" fill="#6321A6"/>
<path d="M13.7926 22.3201V26.6401L27.5852 19.7487V15.4287L13.7926 22.3201Z" fill="#FFCD00"/>
<path d="M27.689 15.4285V19.7485L41.4816 12.8571V8.53711L27.689 15.4285Z" fill="#FF9E1B"/>
<path d="M0 6.8916V11.2116L13.7926 18.103V13.783L0 6.8916Z" fill="#6321A6"/>
<path d="M13.7926 13.6802V18.0002L27.5852 11.1087V6.8916L13.7926 13.6802Z" fill="#FFCD00"/>
<path d="M27.689 6.89143V11.2114L41.4816 4.32V0L27.689 6.89143Z" fill="#FF9E1B"/>
<path d="M82.6519 11.1085V26.2285H79.0223V11.1085H74.2519V7.91992H87.4223V11.1085H82.6519Z" fill="#060024"/>
<path d="M94.9926 13.2685L92.7111 19.8514H97.2741L94.9926 13.2685ZM99.1408 26.1256L98.1037 22.9371H91.7778L90.7408 26.1256H86.9037L93.6445 7.91992H96.4445L103.185 26.1256H99.1408Z" fill="#060024"/>
<path d="M110.548 11.1085V26.2285H106.918V11.1085H102.148V7.91992H115.318V11.1085H110.548Z" fill="#060024"/>
<path d="M124.548 26.2285C120.815 26.2285 117.807 23.6571 117.807 19.8513V7.91992H121.437V19.7485C121.437 21.8056 122.681 23.1428 124.548 23.1428C126.518 23.1428 127.763 21.9085 127.763 19.7485V7.91992H131.289V19.8513C131.289 23.7599 128.281 26.2285 124.548 26.2285Z" fill="#060024"/>
<path d="M140.726 26.7429C137.822 26.7429 135.644 26.1258 133.778 24.2743L136.163 21.9086C137.407 23.1429 138.963 23.5543 140.726 23.5543C142.904 23.5543 144.148 22.7315 144.148 21.1886C144.148 20.5715 143.941 20.0572 143.526 19.6458C143.111 19.3372 142.8 19.1315 141.763 19.0286L139.481 18.72C137.926 18.2058 136.785 17.6915 135.852 16.8686C134.919 15.9429 134.504 14.7086 134.504 13.1658C134.504 9.77148 136.993 7.40576 141.141 7.40576C143.733 7.40576 145.704 8.0229 147.363 9.56576L144.978 11.9315C143.837 10.8 142.281 10.5943 141.037 10.5943C139.067 10.5943 138.133 11.7258 138.133 12.96C138.133 13.4743 138.237 13.9886 138.652 14.2972C139.067 14.6058 139.585 14.9143 140.415 15.0172L142.696 15.3258C144.459 15.5315 145.496 16.0458 146.326 16.8686C147.363 17.7943 147.778 19.1315 147.778 20.88C147.881 24.5829 144.77 26.7429 140.726 26.7429Z" fill="#060024"/>
<path d="M65.0223 26.7429C62.1186 26.7429 59.9408 26.1258 58.0741 24.2743L60.4593 21.8058C61.7038 23.04 63.2593 23.4515 65.0223 23.4515C67.2 23.4515 68.4445 22.6286 68.4445 21.0858C68.4445 20.4686 68.2371 19.9543 67.8223 19.5429C67.4074 19.2343 67.0963 19.0286 66.0593 18.9258L63.7778 18.6172C62.4297 18.3086 61.1852 17.6915 60.1482 16.8686C59.2149 15.84 58.6963 14.5029 58.8001 13.1658C58.8001 9.77148 61.3926 7.40576 65.4371 7.40576C68.0297 7.40576 70 8.0229 71.6593 9.56576L69.2741 11.9315C68.1334 10.8 66.6815 10.5943 65.3334 10.5943C63.363 10.5943 62.4297 11.7258 62.4297 12.96C62.4297 13.4743 62.5334 13.9886 62.9482 14.2972C63.363 14.6058 63.8815 14.9143 64.7112 15.0172L66.9926 15.3258C68.7556 15.5315 69.7926 16.0458 70.6223 16.8686C71.6593 17.7943 72.0741 19.1315 72.0741 20.88C72.1778 24.5829 69.0667 26.7429 65.0223 26.7429Z" fill="#060024"/>
</svg>
