<svg width="50" height="50" viewBox="0 0 50 50" fill="none" xmlns="http://www.w3.org/2000/svg">
<circle cx="25" cy="25" r="25" fill="white"/>
<path d="M13 28.6257V31.0818L20.98 34.9999V32.5438L13 28.6257Z" fill="#6321A6"/>
<path d="M20.98 32.5438V34.9999L28.96 31.0818V28.6257L20.98 32.5438Z" fill="#FFCD00"/>
<path d="M29.02 28.6256V31.0817L37 27.1636V24.7075L29.02 28.6256Z" fill="#FF9E1B"/>
<path d="M13 23.772V26.2281L20.98 30.1462V27.6901L13 23.772Z" fill="#6321A6"/>
<path d="M20.98 27.6901V30.1462L28.96 26.2281V23.772L20.98 27.6901Z" fill="#FFCD00"/>
<path d="M29.02 23.7716V26.2277L37 22.3096V19.8535L29.02 23.7716Z" fill="#FF9E1B"/>
<path d="M13 18.918V21.3741L20.98 25.2922V22.8361L13 18.918Z" fill="#6321A6"/>
<path d="M20.98 22.7776V25.2337L28.96 21.3156V18.918L20.98 22.7776Z" fill="#FFCD00"/>
<path d="M29.0198 18.9181V21.3742L36.9998 17.4561V15L29.0198 18.9181Z" fill="#FF9E1B"/>
</svg>
