<svg width="50" height="50" viewBox="0 0 50 50" fill="none" xmlns="http://www.w3.org/2000/svg">
<circle cx="25" cy="25" r="25" fill="white"/>
<g clip-path="url(#clip0)">
<path d="M35.4648 37.409H35.4608C33.7558 37.403 32.0508 37.401 30.3468 37.398L28.9938 37.397C28.7638 37.397 28.5618 37.243 28.5008 37.022C28.4398 36.8 28.5338 36.565 28.7318 36.447L29.1258 36.212C30.9758 35.08 32.4708 33.822 33.6948 32.364C34.9098 30.917 35.6738 29.263 35.9638 27.447C36.1138 26.509 36.1678 25.733 36.1338 25.006C36.0298 22.767 35.2698 20.736 33.8758 18.969C33.5848 18.601 33.2658 18.267 32.8768 17.867C32.6488 17.633 32.3968 17.5 32.1068 17.457C31.8428 17.422 31.6578 17.496 31.5108 17.709C31.3968 17.873 31.3048 18.065 31.2418 18.266C29.8128 22.866 28.3888 27.469 26.9658 32.071L25.5158 36.772C25.5078 36.799 25.4968 36.828 25.4798 36.872C25.3998 37.072 25.1868 37.205 24.9768 37.212C24.7608 37.203 24.5658 37.079 24.5018 36.873L24.0788 35.505C22.2998 29.749 20.5208 23.993 18.7398 18.238C18.6938 18.088 18.6398 17.956 18.5798 17.847C18.3688 17.458 18.0748 17.348 17.6838 17.516C17.4488 17.615 17.2398 17.747 17.0958 17.886C15.4868 19.439 14.4558 21.323 14.0318 23.483C13.8388 24.459 13.7938 25.467 13.8978 26.478C14.0498 27.97 14.3648 29.16 14.8858 30.222C15.4098 31.288 16.1488 32.296 17.1458 33.304C18.2968 34.469 19.6378 35.501 21.1328 36.371C21.1598 36.387 21.1888 36.405 21.2168 36.424C21.3818 36.535 21.4878 36.746 21.4558 36.943C21.4548 36.951 21.4478 36.986 21.4468 36.994C21.3968 37.231 21.1878 37.4 20.9468 37.4H19.1278C17.5808 37.402 16.0338 37.403 14.4868 37.408C14.2008 37.408 13.9818 37.304 13.8148 37.091C12.0118 34.799 10.8588 32.49 10.2888 30.033C10.1078 29.252 10.0118 28.479 10.0058 27.737L10.0038 27.503C9.99783 26.834 9.99183 26.142 10.0448 25.454C10.2918 22.287 11.4068 19.515 13.3578 17.215C14.9258 15.367 16.8158 13.942 18.9748 12.983C19.1698 12.897 19.3688 12.82 19.5758 12.741L19.8728 12.627C20.0058 12.574 20.1558 12.581 20.2838 12.642C20.4128 12.705 20.5098 12.819 20.5508 12.956L24.9828 27.913L29.3748 12.963C29.4148 12.826 29.5108 12.712 29.6388 12.649C29.7668 12.586 29.9158 12.579 30.0488 12.63L30.2668 12.711C30.4318 12.771 30.5918 12.831 30.7478 12.901C34.5908 14.628 37.3218 17.339 38.8658 20.958C39.3178 22.017 39.6308 23.177 39.8228 24.505C39.9928 25.683 40.0418 26.922 39.9688 28.189C39.8818 29.679 39.5028 31.172 38.8098 32.752C38.1498 34.258 37.2758 35.705 36.2118 37.053C36.0218 37.292 35.7768 37.409 35.4648 37.409ZM31 36.447C31 36 30.438 34.995 32 35.001C33 33.727 33.8578 33.776 34.4778 32.364C35.1208 30.896 36.42 29.866 36.5 28.5C36.569 27.302 37.1328 26.069 36.9728 24.959C36.7928 23.721 36.916 22.976 36.5 22C35.04 18.578 36.9728 20 34.6788 17.709C35.0228 18.375 32.2418 17.053 31.2418 17L26.9658 29.756C26.8998 29.982 25.2328 35.012 24.9948 35.001C24.7778 34.991 23.062 29.964 23 29.756L19.7278 13.778C19.6128 13.822 19.5008 13.868 19.3898 13.917C17.3718 14.814 15.6048 16.146 14.1368 17.876C12.3278 20.009 11.2938 22.585 11.0638 25.534C11.0138 26.176 11.0198 26.846 11.0258 27.493L11.0278 27.728C11.0338 28.395 10.335 25.291 10.5 26C11.029 28.282 9.89567 20.5336 11.5697 22.6806C13.0957 22.6766 10.98 28.19 12.5 28.189L19.2408 36.378C18.2118 35.668 17.2668 34.879 16.4198 34.021C15.3448 32.933 14.5428 31.837 13.9698 30.671C13.3928 29.496 11.1903 28.094 11.0243 26.478C10.9113 25.367 11.3587 22.435 11.5697 21.359C12.0357 18.99 13.738 17.702 15.5 16C15.798 15.712 19.254 13.604 19.5 13.5C20.372 13.129 20.2406 16.367 20.6996 17.215C20.7906 17.383 22.3671 20.528 21.5 20.5C23.261 26.188 23.2368 29.312 24.9948 35.001L25.9918 31.77C27.4158 27.167 28.8388 22.564 30.2678 17.963C30.3608 17.665 30.5008 17.376 30.6718 17.129C31.0408 16.595 31.6018 16.352 32.2548 16.447C32.7688 16.521 33.2248 16.759 33.6098 17.155C33.9318 17.486 35.154 17.827 35.5 18.266C37.028 20.204 37.0408 22.504 37.1548 24.959C37.1918 25.758 37.1348 26.6 36.9728 27.609C36.6538 29.61 35.8138 31.432 34.4778 33.023C33.4318 34.266 32.457 35.442 31 36.447Z" fill="#0D90BC"/>
</g>
<defs>
<clipPath id="clip0">
<rect width="30" height="30" fill="white" transform="translate(10 10)"/>
</clipPath>
</defs>
</svg>
