<svg width="50" height="50" viewBox="0 0 50 50" fill="none" xmlns="http://www.w3.org/2000/svg">
<circle cx="25" cy="25" r="25" fill="white"/>
<g clip-path="url(#clip0)">
<path d="M12.1475 40.0002C11.7385 40.0002 11.4935 39.7962 11.4175 39.3932C11.2115 38.3162 11.0505 37.1572 11.2605 35.9782C11.3395 35.5342 11.4845 34.9672 11.9035 34.5112C12.0575 34.3442 12.3085 34.1142 12.6365 33.9632C13.3635 33.6272 14.1295 33.2552 14.7905 32.7242C15.1555 32.4302 15.3875 32.1662 15.5405 31.8672C15.5995 31.7512 15.6745 31.6602 15.7395 31.5802C15.7705 31.5412 15.8035 31.5022 15.8305 31.4602C16.0345 31.1392 15.9425 30.9852 15.7265 30.8402L15.6825 30.8102C15.2875 30.5452 14.9145 30.2952 14.4825 30.2912C14.2665 30.2892 14.0875 30.1212 14.0725 29.9052L14.0505 29.5582C14.0325 29.2772 14.0155 29.0072 13.9885 28.7382C13.9795 28.6462 13.9505 28.5442 13.9075 28.4532C13.6175 27.8392 13.7595 27.2442 13.9155 26.7952C14.0515 26.4072 14.3675 26.1862 14.7865 26.1862C14.7935 26.1862 14.8005 26.1862 14.8075 26.1862C16.1735 26.2102 17.5395 26.2242 18.9065 26.2342C19.8705 26.2402 20.8335 26.2422 21.7955 26.2342C22.7345 26.2282 23.8375 26.2672 24.9465 26.6292C24.9645 26.6262 25.0535 26.5792 25.1025 26.4932C25.1435 26.4222 25.1455 26.3662 25.1405 26.3512C24.6265 25.9302 24.3425 25.3782 24.0685 24.8442L23.9395 24.5952C23.7875 24.3072 23.7365 23.9852 23.6915 23.7022C23.6795 23.6262 23.6675 23.5492 23.6535 23.4752C23.6325 23.3642 23.6285 23.2332 23.6685 23.0982C23.4825 23.0512 23.3015 23.0062 23.1195 22.9642C22.2515 22.7622 21.4915 22.2952 20.7275 21.4932C20.4985 21.7242 20.3515 21.9202 20.3215 22.1772C20.3115 22.2682 20.2805 22.5442 20.0475 22.7032C19.8095 22.8652 19.5345 22.7922 19.4015 22.7572C19.2805 22.7252 19.1565 22.7092 19.0325 22.6932C18.9215 22.6782 18.8105 22.6622 18.7005 22.6402C18.5045 22.6002 18.2745 22.5472 18.0545 22.4562C17.9435 22.4102 17.8695 22.3342 17.8195 22.2592C17.8075 22.4622 17.7675 22.6382 17.7425 22.7502C17.7135 22.8792 17.6255 22.9862 17.5055 23.0392C17.3835 23.0922 17.2465 23.0852 17.1315 23.0192L16.8785 22.8752C16.6415 22.7402 16.4205 22.6152 16.2075 22.4782C16.0375 22.3692 15.9735 22.1952 15.9345 22.0902C15.8825 21.9612 15.8475 21.8682 15.8125 21.7762C15.7605 21.6382 15.7085 21.5002 15.6455 21.3672C15.5105 21.0802 15.5175 20.7842 15.6655 20.4622C15.7135 20.3572 15.7625 20.2522 15.8075 20.1432C15.7295 20.2242 15.6535 20.3112 15.5735 20.4022C15.4835 20.5052 15.3935 20.6072 15.2985 20.7052C15.2795 20.7242 15.2605 20.7432 15.2405 20.7612L15.3425 20.8982C15.4265 21.0102 15.4485 21.1582 15.3995 21.2902L15.0415 22.2592C14.9905 22.3972 14.8695 22.4982 14.7255 22.5242C14.5795 22.5492 14.4325 22.4972 14.3375 22.3852L14.1415 22.1572C13.9705 21.9592 13.8215 21.7872 13.6845 21.6052C13.5535 21.4332 13.5765 21.2342 13.5885 21.1282L13.6115 20.8002C13.6215 20.6472 13.6325 20.4952 13.6365 20.3422C13.6405 20.1802 13.6515 19.7492 14.0795 19.5622C14.5115 19.3732 14.8485 19.0302 15.2045 18.6672L15.3475 18.5212C15.5875 18.2792 15.9525 17.9772 16.4965 18.0342C16.8185 17.7352 17.2195 17.7932 17.3595 17.8142C17.5775 17.8462 17.7995 17.8592 18.0335 17.8712C18.1435 17.3672 18.3555 16.8832 18.6685 16.4232C18.7135 16.3562 18.7505 16.2572 18.7905 16.1512C18.8255 16.0562 18.8615 15.9602 18.9055 15.8702C19.1735 15.3222 19.4425 14.7732 19.7245 14.2322C19.7535 14.1762 19.7855 14.1222 19.8175 14.0702C19.7155 14.0612 19.6075 14.0672 19.4925 14.0912C19.4835 14.0972 19.4755 14.1042 19.4665 14.1112C19.4055 14.1562 19.3145 14.2252 19.1915 14.2622C18.9925 14.3222 18.7415 14.3962 18.4835 14.3842C18.2695 14.3732 18.0775 14.2782 17.9575 14.1212C17.9425 14.1012 17.9275 14.0802 17.9155 14.0592C17.6435 14.0212 17.3685 13.8692 17.3485 13.3482C17.3385 13.0892 17.3535 12.8612 17.3945 12.6532C17.4365 12.4362 17.6375 12.1722 17.9015 12.1102C18.4485 11.9802 18.9365 11.6672 19.3505 11.3852L19.4025 11.3502C19.5815 11.2272 19.7675 11.1002 19.9785 10.9982C20.1525 10.9142 20.3375 10.8972 20.4855 10.8892C20.4935 10.7882 20.5065 10.6932 20.5225 10.5822L20.5515 10.3652C20.5725 10.1912 20.7015 10.0492 20.8725 10.0102C21.0425 9.97316 21.2205 10.0472 21.3135 10.1952L21.4455 10.4012C21.5275 10.5272 21.6015 10.6432 21.6665 10.7602C21.9685 10.7132 22.2255 10.7982 22.4405 10.8682C22.5155 10.8932 22.5905 10.9182 22.6665 10.9342C22.8645 10.9772 23.0105 11.0942 23.0675 11.2552C23.0865 11.2772 23.1775 11.3082 23.2315 11.3272C23.3045 11.3522 23.3765 11.3792 23.4435 11.4112C23.5795 11.4762 23.9935 11.6752 24.0215 12.1972C24.0245 12.2592 24.0145 12.3192 23.9915 12.3752C24.1325 12.5742 24.2715 12.7722 24.4105 12.9712C24.4345 13.0052 24.4565 13.0392 24.4755 13.0712C24.7255 12.8192 25.0065 12.6192 25.2675 12.4432C25.1925 12.3272 25.1505 12.1942 25.1335 12.0352C25.1195 11.9082 25.1315 11.7942 25.1425 11.6922L25.1505 11.6012C25.1575 11.3772 25.2555 11.2602 25.3505 11.1982C25.3535 11.1802 25.3565 11.1612 25.3585 11.1432C25.3715 11.0612 25.3885 10.9802 25.4155 10.9042C25.4735 10.7472 25.5635 10.6182 25.6535 10.5032C25.7165 10.4212 25.7865 10.3442 25.8695 10.2552L25.9765 10.1392C26.0965 10.0062 26.2865 9.96516 26.4495 10.0372L26.5515 10.0792C26.6645 10.1242 26.7975 10.1782 26.9215 10.2472C27.8075 10.7342 27.7375 11.4652 27.6915 11.9492C27.6785 12.0912 27.6545 12.2772 27.5865 12.4572C27.5665 12.5112 27.5375 12.5892 27.4915 12.6702C27.7225 13.0132 27.7595 13.4152 27.7885 13.7402C27.7955 13.8242 27.8035 13.9082 27.8145 13.9902C27.9115 14.7132 27.9485 15.4542 27.9705 16.0822C27.9785 16.3002 27.8915 16.4822 27.8215 16.6292C27.8005 16.6732 27.7785 16.7182 27.7625 16.7622C27.7615 16.7642 27.7565 16.7762 27.7525 16.7882C27.8405 17.2822 27.9475 17.8332 28.2105 18.2952C28.2885 18.4322 28.3435 18.4692 28.4245 18.4932C28.9345 18.6442 29.3565 18.9992 29.6795 19.5492C29.8675 19.8692 30.0455 20.1952 30.2245 20.5212C30.3335 20.7202 30.4415 20.9202 30.5535 21.1182C31.0955 21.3102 31.5065 21.6912 31.8045 22.2812L31.8305 22.3352C32.3865 23.1542 32.7315 24.0652 32.9065 25.1612C32.9845 25.6522 33.1335 26.1332 33.2905 26.6412C33.3375 26.7912 33.3835 26.9402 33.4275 27.0902C33.4895 27.2972 33.6225 27.4922 33.8475 27.7032C34.0095 27.8552 34.1495 28.0192 34.2855 28.1782C34.3755 28.2832 34.4645 28.3882 34.5605 28.4882C34.7015 28.6342 34.8505 28.7712 35.0005 28.9092L35.2215 29.1142C35.3505 29.2362 35.3875 29.4262 35.3135 29.5872C35.2445 29.7382 35.1575 29.8422 35.0615 29.9112C35.0765 29.9662 35.0795 30.0262 35.0695 30.0852C35.0475 30.2192 34.9605 30.3322 34.8405 30.3902C34.8345 30.4622 34.8095 30.5322 34.7675 30.5922C34.6985 30.6912 34.5895 30.7552 34.4695 30.7672L34.1395 30.8012C34.0705 30.8662 33.9975 30.9142 33.9245 30.9502C34.1495 31.1532 34.3835 31.3292 34.6285 31.4802C34.8415 31.6102 35.0265 31.7852 35.1505 31.9722C36.2555 33.6402 37.3965 35.4562 38.2615 37.4422C38.4345 37.8392 38.5625 38.2512 38.6865 38.6492L38.7725 38.9222C38.8175 39.0642 38.8215 39.1972 38.8245 39.3152C38.8255 39.3562 38.8265 39.3982 38.8305 39.4422C38.8395 39.5532 38.8035 39.6642 38.7295 39.7482C38.6555 39.8322 38.5515 39.8842 38.4395 39.8902L38.3465 39.8962C38.2805 39.9012 38.2235 39.9042 38.1665 39.9042L32.9635 39.9222C26.0245 39.9472 19.0865 39.9712 12.1475 40.0002C12.1495 40.0002 12.1515 40.0002 12.1475 40.0002ZM19.4565 21.9192C19.4785 21.9242 19.5005 21.9282 19.5225 21.9332C19.5275 21.9132 19.5315 21.8932 19.5365 21.8742C19.5105 21.8902 19.4845 21.9052 19.4565 21.9192ZM17.2765 21.0632C17.5205 21.2192 17.6625 21.4202 17.7395 21.6312C17.7765 21.5672 17.8275 21.5122 17.8925 21.4802L17.9395 21.4542C18.0115 21.4122 18.1085 21.3552 18.2385 21.3322C18.3545 21.3122 18.4715 21.3012 18.5885 21.2922C18.6555 21.2862 18.7215 21.2812 18.7875 21.2732C18.9905 21.2482 19.1585 21.1602 19.3215 20.9872C19.0075 20.8842 18.7425 20.7122 18.5045 20.5462C18.4445 20.5042 18.3425 20.4722 18.2345 20.4362C18.1425 20.4062 18.0505 20.3762 17.9635 20.3382L17.8835 20.3032C17.7205 20.2322 17.5535 20.1602 17.3875 20.0802C17.3545 20.2992 17.3245 20.5242 17.3075 20.7482L17.3045 20.8152C17.3015 20.8772 17.2985 20.9652 17.2765 21.0632ZM32.3465 30.1532C32.2545 30.1532 32.1625 30.1222 32.0875 30.0612L31.9735 29.9712C31.8965 29.9102 31.8345 29.8622 31.7765 29.8092C31.1605 29.2532 30.3755 29.0172 29.5445 28.7672L29.3765 28.7172C29.0495 28.6182 28.7225 28.5232 28.3705 28.4212L27.8395 28.2672C27.7055 28.2282 27.6005 28.1242 27.5595 27.9912C27.5425 27.9352 27.5375 27.8762 27.5445 27.8202C27.3875 28.0032 27.1085 28.0592 26.9235 28.0152C26.7085 27.9662 26.4965 27.9062 26.2615 27.8392L25.9845 27.7612C25.8145 27.7142 25.6925 27.5642 25.6815 27.3882C25.6695 27.2122 25.7715 27.0482 25.9345 26.9802L26.1385 26.8942C26.2795 26.8352 26.4045 26.7822 26.5305 26.7302C26.5895 26.7062 26.6245 26.6852 26.6445 26.6702C26.6355 26.6522 26.6195 26.6232 26.5915 26.5842C26.2855 26.1742 26.0925 25.7072 26.0165 25.1942C26.0075 25.1362 26.0035 25.0772 25.9995 25.0182L25.9955 24.9622C25.9795 24.7582 26.1145 24.5732 26.3145 24.5262C26.6775 24.4402 26.9695 24.5202 27.2285 24.7742C27.3465 24.8902 27.5435 24.9802 27.7185 25.0602C28.0885 25.2282 28.3395 25.4892 28.4435 25.8122C28.5115 26.0252 28.5445 26.3642 28.3125 26.7672C28.3025 26.7852 28.2925 26.8022 28.2825 26.8192C28.5255 26.5242 28.7625 26.2382 29.0035 25.9542C29.0535 25.8952 29.0815 25.8542 29.0965 25.8272C29.0745 25.8082 29.0365 25.7782 28.9745 25.7412C28.4195 25.4002 28.2035 24.8632 28.0135 24.3892C27.9705 24.2822 27.9735 24.1622 28.0225 24.0582C28.0715 23.9532 28.1615 23.8742 28.2705 23.8392C29.2735 23.5162 29.2735 23.5162 29.7755 22.7842C29.8605 22.6612 30.0085 22.5912 30.1555 22.6062C30.3045 22.6202 30.4355 22.7132 30.4965 22.8512L30.5885 23.0572C30.6585 23.2132 30.7225 23.3582 30.7845 23.5032C30.8115 23.5672 30.8325 23.6342 30.8525 23.7012C30.8645 23.7432 30.8835 23.8062 30.8955 23.8252C31.1535 24.1302 31.3025 24.5022 31.3455 24.9532C31.4865 26.4142 33.1286 27.0932 33.7406 28.5932C33.7656 28.6522 32.6625 29.3932 32.6905 29.4702L32.7355 29.5962C32.7995 29.7712 32.7395 29.9662 32.5875 30.0752C32.5155 30.1272 32.4315 30.1532 32.3465 30.1532ZM28.6755 27.6472C29.0025 27.7422 29.3105 27.8322 29.6165 27.9242L29.7825 27.9742C30.3435 28.1432 30.9165 28.3152 31.4525 28.5932C30.9965 27.4062 30.6385 26.2662 30.5195 25.0322C30.4925 24.7492 30.4085 24.5332 30.2555 24.3522C30.1395 24.2142 30.0935 24.0602 30.0575 23.9362C30.0475 23.9042 30.0395 23.8722 30.0275 23.8412C29.7555 24.1612 29.5135 24.2942 28.9555 24.4862C29.0675 24.7152 29.2005 24.9062 29.4075 25.0342C29.6065 25.1562 29.8785 25.3582 29.9315 25.6932C29.9855 26.0302 29.7875 26.3092 29.6335 26.4892C29.3255 26.8522 29.0235 27.2202 28.7075 27.6042L28.6755 27.6472ZM26.9865 25.6182C27.0555 25.7832 27.1445 25.9382 27.2555 26.0872C27.3835 26.2592 27.4465 26.4162 27.4705 26.5522C27.5145 26.4872 27.5565 26.4212 27.5945 26.3542C27.6595 26.2412 27.6795 26.1442 27.6545 26.0652C27.6245 25.9712 27.5245 25.8822 27.3735 25.8132C27.2545 25.7592 27.1195 25.6972 26.9865 25.6182Z" fill="#FF9E1B"/>
</g>
<defs>
<clipPath id="clip0">
<rect width="30" height="30" fill="white" transform="translate(10 10)"/>
</clipPath>
</defs>
</svg>
