<svg width="86" height="86" viewBox="0 0 86 86" fill="none" xmlns="http://www.w3.org/2000/svg">
<path d="M36.5 27.8335H32.1667C30.97 27.8335 30 28.8035 30 30.0002V56.0002C30 57.1968 30.97 58.1668 32.1667 58.1668H36.5C37.6966 58.1668 38.6667 57.1968 38.6667 56.0002V30.0002C38.6667 28.8035 37.6966 27.8335 36.5 27.8335Z" stroke="white" stroke-width="1.5" stroke-linecap="round" stroke-linejoin="round"/>
<path d="M53.8333 27.8335H49.5C48.3034 27.8335 47.3333 28.8034 47.3333 29.9999V55.9971C47.3333 57.1936 48.3034 58.1635 49.5 58.1635H53.8333C55.03 58.1635 56 57.1936 56 55.9971V29.9999C56 28.8034 55.03 27.8335 53.8333 27.8335Z" stroke="white" stroke-width="1.5" stroke-linecap="round" stroke-linejoin="round"/>
<circle cx="43" cy="43" r="42.25" stroke="white" stroke-width="1.5"/>
</svg>
