<svg width="28" height="27" viewBox="0 0 28 27" fill="none" xmlns="http://www.w3.org/2000/svg">
<path d="M27.5357 23.4452C27.1079 23.1428 26.5159 23.2446 26.2135 23.6725C26.2095 23.678 25.7824 24.2481 24.9799 24.6159C23.8399 25.1383 22.5121 25.0103 21.0335 24.2351C20.9747 24.2043 20.9153 24.1736 20.8556 24.143V6.76355C20.8556 4.08031 23.0387 1.89731 25.7219 1.89731C26.2458 1.89731 26.6705 1.47256 26.6705 0.948623C26.6705 0.424749 26.2457 0 25.7218 0C21.9923 0 18.9582 3.03412 18.9582 6.76355V9.66073H4.12021V6.76355C4.12021 4.08037 6.3032 1.89737 8.98645 1.89737C9.51038 1.89737 9.93513 1.47262 9.93513 0.948686C9.93513 0.424749 9.51038 0 8.98645 0C5.25702 0 2.2229 3.03412 2.2229 6.76355V23.406C1.69359 23.6122 1.15778 23.8392 0.615214 24.0889C0.139278 24.308 -0.0689091 24.8714 0.15009 25.3473C0.369215 25.8233 0.932651 26.0315 1.40859 25.8124C9.57082 22.055 16.1067 23.7945 20.1524 25.9155C21.4362 26.5884 22.5645 26.8255 23.5176 26.8254C24.4383 26.8254 25.1955 26.6041 25.7704 26.3406C27.0365 25.7603 27.6924 24.8673 27.7629 24.7674C28.0653 24.3395 27.9636 23.7476 27.5357 23.4452ZM18.9582 23.2764C15.2238 21.7741 10.1556 20.9026 4.12021 22.7471V18.246H18.9582V23.2764ZM18.9582 16.3487H4.12021V11.5581H18.9582V16.3487Z" fill="#FF9E1B"/>
</svg>
